<svg id="Сгруппировать_4" data-name="Сгруппировать 4" xmlns="http://www.w3.org/2000/svg" width="26.888" height="25.216" viewBox="0 0 26.888 25.216">
  <path id="Контур_13" data-name="Контур 13" d="M367.945,176.878h1.827v1.575h1.44a2.367,2.367,0,0,1-2.228,1.577h-1.039L369,178.453l-1.051-1.576Zm3.4-3.152h14.183v3.152H371.347v-3.152Zm7.1-4.272.981,2.7h-1.963l.981-2.7Zm8.663,9v-1.576h1.827l-1.051,1.576,1.051,1.576h-.986a2.452,2.452,0,0,1-2.272-1.576Zm-12.541-15.047-.539-1.481,1.481-.539.539,1.481-1.481.539Zm-1.617-4.443,1.481-.539.539,1.481-1.481.539-.539-1.481Zm-1.345,5.521L371.065,163l1.481-.539.539,1.481-1.481.539Zm-1.617-4.443,1.481-.539.539,1.481-1.481.539-.539-1.481Zm-1.345,5.521-.539-1.481,1.481-.539.539,1.481-1.481.539Zm-1.078-2.962-.539-1.481,1.481-.539.539,1.481-1.481.539Zm13.822-1.23,1.481.539-.539,1.481-1.481-.539.539-1.481Zm1.078-2.962,1.481.539-.539,1.481-1.481-.539.539-1.481Zm3.365,4.579-.539,1.481-1.481-.539.539-1.481,1.481.539Zm-.4-3.5,1.481.539-.539,1.481-1.481-.539.539-1.481Zm3.365,4.579-.539,1.481-1.481-.539.539-1.481,1.481.539Zm-.4-3.5,1.481.539-.539,1.481-1.481-.539.539-1.481Zm-15.543,17.889h11.191a4,4,0,0,0,3.912,3.152h3.931l-2.1-3.152,2.1-3.152h-4.771V172.15h-6l-1.82-5,1.025-2.817,8.885,3.234,2.695-7.4h0l-10.366-3.773-3.078,8.457-3.072-8.441-10.366,3.773,2.695,7.4,8.885-3.234,1.02,2.8-1.82,5h-6.014V175.3H365l2.1,3.152-2.1,3.152h3.983a3.947,3.947,0,0,0,3.861-3.152Z" transform="translate(-365 -156.389)" fill="#30e2d9"/>
</svg>
