<svg xmlns="http://www.w3.org/2000/svg" width="18.78" height="24.654" viewBox="0 0 18.78 24.654">
  <g id="NewGroup1-10" transform="translate(-219.986 -399)">
    <g id="Сгруппировать_15" data-name="Сгруппировать 15" transform="translate(219.986 399)">
      <path id="Контур_48" data-name="Контур 48" d="M221.431,400.445h15.89v2.937h-15.89v-2.937Zm15.168,9.393-.627-5.011h1.253l-.626,5.011Zm-10.112,2.212a.722.722,0,1,1,.722-.722.723.723,0,0,1-.722.722Zm6.5,1.445v1.445h-1.445v-1.445H230.1v1.445h-2.889V413.37a2.167,2.167,0,1,0-1.445,0v1.569h-2.793l1.264-10.112h10.282l1.264,10.112h-1.349v-1.445Zm2.889,8.716h-13v-5.827h13v5.827Zm-13.724-12.372-.626-5.011h1.253l-.627,5.011Zm15.168,13.817v-7.949l1.445-11.557V399h-18.78v5.149l1.445,11.557v7.949Z" transform="translate(-219.986 -399)" fill="#30e2d9"/>
    </g>
  </g>
</svg>
