<svg xmlns="http://www.w3.org/2000/svg" width="24.777" height="24.777" viewBox="0 0 24.777 24.777">
  <g id="NewGroup1-6" transform="translate(-839 -399)">
    <g id="Сгруппировать_21" data-name="Сгруппировать 21" transform="translate(839 399)">
      <path id="Контур_67" data-name="Контур 67" d="M862.326,467.435v4.4H856.47v-4.4Zm-7.307,4.4h-7.259v-7.307h7.259v7.307Zm-14.566,0v-4.4h5.855v4.4Zm16.018-8.759H846.307v2.9H839v7.307h24.777v-7.307H856.47v-2.9Z" transform="translate(-839 -448.514)" fill="#30e2d9"/>
      <path id="Контур_68" data-name="Контур 68" d="M882.814,408.485a2.178,2.178,0,1,1-2.178-2.178,2.18,2.18,0,0,1,2.178,2.178Zm-3.178-8.033h2l1.023,2.08-2.023,2.023-2.023-2.023,1.023-2.08Zm2.9-1.452h-3.808l-1.881,3.824,2.335,2.335a3.63,3.63,0,1,0,2.9,0l2.335-2.335L882.54,399Z" transform="translate(-868.248 -399)" fill="#30e2d9"/>
      <path id="Контур_69" data-name="Контур 69" d="M842.63,433.552a4.389,4.389,0,0,0,1.225,1.225,1.225,1.225,0,1,1-2.45,0,4.388,4.388,0,0,0,1.225-1.225Zm-.726,4.854h1.452a2.907,2.907,0,0,1,2.9-2.9V434.05a2.907,2.907,0,0,1-2.9-2.9H841.9a2.907,2.907,0,0,1-2.9,2.9V435.5a2.907,2.907,0,0,1,2.9,2.9Z" transform="translate(-839 -423.84)" fill="#30e2d9"/>
      <path id="Контур_70" data-name="Контур 70" d="M919.525,436.01a4.438,4.438,0,0,0-.573-.689,4.488,4.488,0,0,0-.674-.545,4.5,4.5,0,0,0,.674-.545,4.445,4.445,0,0,0,.573-.689,4.393,4.393,0,0,0,1.231,1.234,4.393,4.393,0,0,0-1.231,1.234Zm.732-4.863h-1.452a2.931,2.931,0,0,1-2.952,2.9V435.5a2.931,2.931,0,0,1,2.952,2.9h1.452a2.907,2.907,0,0,1,2.9-2.9V434.05a2.907,2.907,0,0,1-2.9-2.9Z" transform="translate(-898.383 -423.84)" fill="#30e2d9"/>
    </g>
  </g>
</svg>
