<svg xmlns="http://www.w3.org/2000/svg" xmlns:xlink="http://www.w3.org/1999/xlink" width="25.024" height="26.684" viewBox="0 0 25.024 26.684">
  <defs>
    <clipPath id="clip-path">
      <rect id="Прямоугольник_2" data-name="Прямоугольник 2" width="25.024" height="26.684" fill="#30e2d9"/>
    </clipPath>
  </defs>
  <g id="NewGroup1-7" transform="translate(-684.39 -399)">
    <g id="Сгруппировать_20" data-name="Сгруппировать 20" transform="translate(684.39 399)">
      <g id="Сгруппировать_19" data-name="Сгруппировать 19" transform="translate(0 0)">
        <g id="Сгруппировать_18" data-name="Сгруппировать 18" clip-path="url(#clip-path)">
          <path id="Контур_60" data-name="Контур 60" d="M707.85,460.108v5.65l-3.128-1.043v-3.565l3.128-1.043Zm-4.692,7.569h-17.2v-9.436h17.2v9.436Zm1.564-11H684.39v12.564h20.332v-2.877l4.692,1.564v-9.99l-4.692,1.564v-2.825Z" transform="translate(-684.39 -442.557)" fill="#30e2d9"/>
        </g>
      </g>
      <path id="Контур_61" data-name="Контур 61" d="M741.889,469.455h3.128v1.564h-3.128v-1.564Z" transform="translate(-727.813 -452.207)" fill="#30e2d9"/>
      <path id="Контур_62" data-name="Контур 62" d="M694.555,400.135,693.48,399a8.611,8.611,0,0,0,.041,12.534l1.068-1.142a7.046,7.046,0,0,1-.034-10.256Z" transform="translate(-689.227 -399)" fill="#30e2d9"/>
      <path id="Контур_63" data-name="Контур 63" d="M749.426,405.3a8.525,8.525,0,0,0-2.671-6.247l-1.078,1.133a7.047,7.047,0,0,1-.016,10.216l1.075,1.136a8.525,8.525,0,0,0,2.69-6.239Z" transform="translate(-730.662 -399.043)" fill="#30e2d9"/>
      <path id="Контур_64" data-name="Контур 64" d="M705.168,408.709a5.48,5.48,0,0,0,0,7.741l1.106-1.106a3.914,3.914,0,0,1,0-5.529l-1.106-1.106Z" transform="translate(-698.872 -406.332)" fill="#30e2d9"/>
      <path id="Контур_65" data-name="Контур 65" d="M738.317,416.45a5.48,5.48,0,0,0,0-7.741l-1.106,1.106a3.914,3.914,0,0,1,0,5.529l1.106,1.106Z" transform="translate(-724.28 -406.332)" fill="#30e2d9"/>
      <path id="Контур_66" data-name="Контур 66" d="M718.68,418.066a.782.782,0,1,1,.782-.782.783.783,0,0,1-.782.782Zm0-3.128a2.346,2.346,0,1,0,2.346,2.346,2.349,2.349,0,0,0-2.346-2.346Z" transform="translate(-708.514 -411.036)" fill="#30e2d9"/>
    </g>
  </g>
</svg>
