<svg xmlns="http://www.w3.org/2000/svg" width="28.061" height="29" viewBox="0 0 28.061 29">
  <g id="NewGroupe4" transform="translate(-682.764 -153)">
    <g id="NewGroup1-19" transform="translate(682.764 153)">
      <g id="Сгруппировать_6" data-name="Сгруппировать 6" transform="translate(0 0)">
        <path id="Контур_23" data-name="Контур 23" d="M688.873,194.448l-.938-.493-.938.493.179-1.045-.759-.74,1.049-.153.469-.951.469.951,1.049.153-.759.74.179,1.045Zm-.938-6.729-1.6,3.238-3.573.519,2.586,2.52-.61,3.558,3.2-1.68,3.2,1.68L690.52,194l2.586-2.52-3.573-.519-1.6-3.238Z" transform="translate(-682.764 -178.482)" fill="#30e2d9"/>
        <path id="Контур_24" data-name="Контур 24" d="M687.723,232.021v-.449h5.1v.449a2.965,2.965,0,1,1-5.1,0Zm6.8,0v-2.148h-8.5v2.148a6.92,6.92,0,0,0,3.869,6.209l.38.19.38-.19a6.92,6.92,0,0,0,3.869-6.209Z" transform="translate(-685.156 -209.421)" fill="#30e2d9"/>
        <path id="Контур_25" data-name="Контур 25" d="M726.053,161.3h8.5V163h-8.5v-1.7Zm10.2,0h3.4V163h-3.4v-1.7Zm-11.9,3.4h17v-5.1h-17v5.1Z" transform="translate(-713.288 -157.845)" fill="#30e2d9"/>
        <path id="Контур_26" data-name="Контур 26" d="M726.053,199.631h6.8v1.7h-6.8v-1.7Zm8.5,0h5.1v1.7h-5.1v-1.7Zm-10.2,3.4h17v-5.1h-17v5.1Z" transform="translate(-713.288 -185.977)" fill="#30e2d9"/>
        <path id="Контур_27" data-name="Контур 27" d="M726.053,237.961h5.1v1.7h-5.1v-1.7Zm6.8,0h6.8v1.7h-6.8v-1.7Zm-8.5,3.4h17v-5.1h-17v5.1Z" transform="translate(-713.288 -214.109)" fill="#30e2d9"/>
        <path id="Контур_28" data-name="Контур 28" d="M687.1,154.7a1.185,1.185,0,0,1,1.138.63h0l1.572.007,0-.008a1.185,1.185,0,0,1,1.139-.631,1.135,1.135,0,0,1,1.076,1.241c0,1.082-1.328,2.11-2.551,3.142l-.45.381-.316-.269c-1.766-1.5-2.687-2.329-2.687-3.254A1.135,1.135,0,0,1,687.1,154.7Zm-2.776,1.241c0,1.754,1.378,2.926,3.285,4.548.9.763.848.728,1.417,1.219.538-.463.542-.478,1.547-1.326,1.488-1.256,3.154-2.541,3.154-4.44a2.831,2.831,0,0,0-2.773-2.94h-.005a3.145,3.145,0,0,1-3.849,0,2.831,2.831,0,0,0-2.776,2.94Z" transform="translate(-683.907 -153)" fill="#30e2d9"/>
      </g>
    </g>
  </g>
</svg>
