<svg xmlns="http://www.w3.org/2000/svg" width="27.895" height="24.516" viewBox="0 0 27.895 24.516">
  <g id="NewGroup1-16" transform="translate(-207 -282.6)">
    <g id="Сгруппировать_9" data-name="Сгруппировать 9" transform="translate(207 282.6)">
      <path id="Контур_32" data-name="Контур 32" d="M233.26,297.31v8.172H220.447l1.229-3.687,1.088-1.346,2.79.75.149-2.886,2.621-1Zm-13.527,1.284-1.865.5-.1-1.928-1.8-.69,1.053-1.619-1.053-1.619,1.8-.69.1-1.928,1.865.5,1.214-1.5,1.214,1.5,1.865-.5.1,1.928,1.8.69-1.053,1.619,1.053,1.619-1.8.69-.1,1.928-1.865-.5-1.214,1.5-1.214-1.5Zm-6.163-6.188h-4.936v-8.172h12.813l-1.229,3.687-1.088,1.346-2.79-.75-.149,2.886-2.621,1Zm13.255,2.452,1.576-2.422-2.7-1.033-.149-2.886-2.79.75-.9-1.113,1.852-5.555H207v11.441h7.537l.532.817-1.576,2.422,2.7,1.033.149,2.886,2.79-.75.9,1.113-1.851,5.555h16.715V295.675h-7.537l-.532-.817Z" transform="translate(-207 -282.6)" fill="#30e2d9"/>
      <path id="Контур_33" data-name="Контур 33" d="M259.941,317.727h-1.634V321h1.634v-3.269Z" transform="translate(-245.177 -308.737)" fill="#30e2d9"/>
      <path id="Контур_34" data-name="Контур 34" d="M259.941,333.693h-1.634v1.634h1.634v-1.634Z" transform="translate(-245.177 -320.618)" fill="#30e2d9"/>
    </g>
  </g>
</svg>
