<svg xmlns="http://www.w3.org/2000/svg" width="23.949" height="23.937" viewBox="0 0 23.949 23.937">
  <g id="Сгруппировать_799" data-name="Сгруппировать 799" transform="translate(-158.82 -687.82)">
    <path id="team" d="M23.529,5.013a.346.346,0,0,0-.488-.024l-1.021.926a.1.1,0,0,1-.148-.007l-.747-.824a.345.345,0,0,0-.512.464l.609.672-1.03.934a.345.345,0,0,0-.1.176l-.284,1.2a3.258,3.258,0,0,1-.986,1.669l-2.025,1.836a.5.5,0,1,1-.673-.742l.883-.8a.345.345,0,1,0-.464-.512l-.883.8a1.186,1.186,0,0,0-.311.452,1.122,1.122,0,0,0-.477-.106h0a1.119,1.119,0,0,0-.486.11,1.122,1.122,0,0,0-.16-.318l.862-.782a.345.345,0,1,0-.464-.512l-.489.444a1.127,1.127,0,0,0-.276-.422l-.273-.264.443-.4a.345.345,0,1,0-.464-.512l-.476.432-.973-.94a1.191,1.191,0,0,0,.469-1.881l1.468-1.331a5.288,5.288,0,0,1,2.48-1.26A.346.346,0,0,0,16.69,3.4l1.087-.985,1.846,2.036a.346.346,0,0,0,.512-.464L18.152,1.8a.1.1,0,0,1,.007-.148L19.18.73a.345.345,0,1,0-.464-.512l-1.021.926a.794.794,0,0,0-.258.651L16.295,2.831a5.979,5.979,0,0,0-2.71,1.4l-1.5,1.358-1.551-1.5a3.946,3.946,0,0,0-2.1-1.058L7.332,2.851,6.288,1.842a.794.794,0,0,0-.237-.659L5.06.226a.345.345,0,0,0-.48.5l.991.958a.105.105,0,0,1,0,.148L1.725,5.812a.1.1,0,0,1-.074.032.107.107,0,0,1-.075-.029L.586,4.857a.345.345,0,0,0-.48.5l.991.958a.79.79,0,0,0,.553.224h.014a.808.808,0,0,0,.1-.009L2.873,7.6a5.98,5.98,0,0,0,1.581,2.612l.721.7a.345.345,0,1,0,.48-.5l-.721-.7A5.287,5.287,0,0,1,3.512,7.321a.345.345,0,0,0-.093-.156L2.364,6.145,5.929,2.456l1,.966a.345.345,0,0,0,.183.092l1.213.2a3.258,3.258,0,0,1,1.731.873l1.966,1.9a.5.5,0,0,1-.627.776l-.927-.884a.345.345,0,1,0-.48.5l3.388,3.261a.431.431,0,0,1,.132.324,1.122,1.122,0,0,0-.2-.018h0a1.119,1.119,0,0,0-.436.088,1.125,1.125,0,0,0-1.121-1.047h0a1.133,1.133,0,0,0-.277.034L10.242,8.334a.345.345,0,1,0-.48.5l1.113,1.075a1.114,1.114,0,0,0-.2.383,1.122,1.122,0,0,0-.482-.108h0a1.132,1.132,0,0,0-.251.028l-.78-.753a.345.345,0,1,0-.48.5l.65.628a1.117,1.117,0,0,0-.265.724v.228l-.989-.956a.345.345,0,0,0-.48.5l1.468,1.418v1.1a.43.43,0,0,1-.228-.115l-2.12-2.048a.345.345,0,0,0-.48.5L8.08,13.713A1.193,1.193,0,0,0,7.367,14.8l0,2.734a3.946,3.946,0,0,0,.693,2.243l.634.926,0,1.451a.8.8,0,0,0-.076.066.79.79,0,0,0-.234.562l0,.6a.345.345,0,0,0,.345.346h0a.346.346,0,0,0,.345-.345l0-.6a.1.1,0,0,1,.031-.074.1.1,0,0,1,.074-.031l5.539.006a.1.1,0,0,1,.1.1l0,.6a.345.345,0,0,0,.345.346h0a.346.346,0,0,0,.345-.345l0-.6a.794.794,0,0,0-.309-.629l0-1.542a5.978,5.978,0,0,0,.783-2.951v-.315a.345.345,0,0,0-.345-.346h0a.346.346,0,0,0-.345.345v.315a5.287,5.287,0,0,1-.735,2.682.345.345,0,0,0-.048.175l0,1.467-5.13-.006,0-1.391a.346.346,0,0,0-.06-.2l-.695-1.015a3.258,3.258,0,0,1-.572-1.852l0-2.734a.5.5,0,0,1,.5-.5h0a.5.5,0,0,1,.5.5V16a.346.346,0,0,0,.345.346h0A.346.346,0,0,0,9.749,16V14.806l0-3.5a.434.434,0,0,1,.434-.434h0a.434.434,0,0,1,.434.435l0,3.5a.345.345,0,0,0,.345.346h0a.345.345,0,0,0,.345-.345l0-4.195a.434.434,0,0,1,.434-.434h0a.434.434,0,0,1,.434.435l0,4.195a.346.346,0,0,0,.345.346h0a.345.345,0,0,0,.345-.345l0-3.238a.434.434,0,0,1,.434-.434h0a.435.435,0,0,1,.434.435l0,3.238a.345.345,0,0,0,.345.346h0a.345.345,0,0,0,.345-.345l0-2.563a.435.435,0,0,1,.434-.434h0a.434.434,0,0,1,.434.435l0,3.632a.346.346,0,0,0,.345.346h0a.346.346,0,0,0,.345-.345l0-3.123a1.192,1.192,0,0,0,.407.092h.06a1.183,1.183,0,0,0,.8-.309l2.025-1.836a3.946,3.946,0,0,0,1.194-2.022l.259-1.092,1.075-.974a.8.8,0,0,0,.1.012h.04a.79.79,0,0,0,.534-.206L23.505,5.5a.345.345,0,0,0,.024-.488Z" transform="translate(159 687.871)" fill="#30e2d9" stroke="#30e2d9" stroke-width="0.3"/>
  </g>
</svg>
