<svg xmlns="http://www.w3.org/2000/svg" width="25.933" height="25.933" viewBox="0 0 25.933 25.933">
  <g id="Сгруппировать_798" data-name="Сгруппировать 798" transform="translate(0.15 0.15)">
    <g id="network" transform="translate(0)">
      <g id="Сгруппировать_749" data-name="Сгруппировать 749" transform="translate(22.215 5.127)">
        <g id="Сгруппировать_748" data-name="Сгруппировать 748">
          <path id="Контур_938" data-name="Контур 938" d="M445.443,102.4a1.709,1.709,0,1,0,1.709,1.709A1.711,1.711,0,0,0,445.443,102.4Zm0,2.563a.854.854,0,1,1,.854-.854A.855.855,0,0,1,445.443,104.963Z" transform="translate(-443.734 -102.4)" fill="#30e2d9" stroke="#30e2d9" stroke-width="0.3"/>
        </g>
      </g>
      <g id="Сгруппировать_751" data-name="Сгруппировать 751" transform="translate(0 19.225)">
        <g id="Сгруппировать_750" data-name="Сгруппировать 750">
          <path id="Контур_939" data-name="Контур 939" d="M1.709,384a1.709,1.709,0,1,0,1.709,1.709A1.711,1.711,0,0,0,1.709,384Zm0,2.563a.854.854,0,1,1,.854-.854A.855.855,0,0,1,1.709,386.563Z" transform="translate(0 -384)" fill="#30e2d9" stroke="#30e2d9" stroke-width="0.3"/>
        </g>
      </g>
      <g id="Сгруппировать_753" data-name="Сгруппировать 753" transform="translate(18.797 3.845)">
        <g id="Сгруппировать_752" data-name="Сгруппировать 752">
          <path id="Контур_940" data-name="Контур 940" d="M379.761,78.614l-3.686-1.779a.427.427,0,0,0-.371.769l3.686,1.779a.427.427,0,0,0,.371-.769Z" transform="translate(-375.463 -76.792)" fill="#30e2d9" stroke="#30e2d9" stroke-width="0.3"/>
        </g>
      </g>
      <g id="Сгруппировать_755" data-name="Сгруппировать 755" transform="translate(17.516 22.215)">
        <g id="Сгруппировать_754" data-name="Сгруппировать 754">
          <path id="Контур_941" data-name="Контур 941" d="M351.576,443.733a1.709,1.709,0,1,0,1.709,1.709A1.711,1.711,0,0,0,351.576,443.733Zm0,2.563a.854.854,0,1,1,.854-.854A.855.855,0,0,1,351.576,446.3Z" transform="translate(-349.867 -443.733)" fill="#30e2d9" stroke="#30e2d9" stroke-width="0.3"/>
        </g>
      </g>
      <g id="Сгруппировать_757" data-name="Сгруппировать 757" transform="translate(14.098 20.933)">
        <g id="Сгруппировать_756" data-name="Сгруппировать 756">
          <path id="Контур_942" data-name="Контур 942" d="M285.894,419.946l-3.686-1.779a.427.427,0,1,0-.371.769l3.686,1.779a.427.427,0,1,0,.371-.769Z" transform="translate(-281.596 -418.124)" fill="#30e2d9" stroke="#30e2d9" stroke-width="0.3"/>
        </g>
      </g>
      <g id="Сгруппировать_759" data-name="Сгруппировать 759" transform="translate(11.108 11.535)">
        <g id="Сгруппировать_758" data-name="Сгруппировать 758">
          <path id="Контур_943" data-name="Контур 943" d="M223.576,230.4a1.709,1.709,0,1,0,1.709,1.709A1.711,1.711,0,0,0,223.576,230.4Zm0,2.563a.854.854,0,1,1,.854-.854A.855.855,0,0,1,223.576,232.963Z" transform="translate(-221.867 -230.4)" fill="#30e2d9" stroke="#30e2d9" stroke-width="0.3"/>
        </g>
      </g>
      <g id="Сгруппировать_761" data-name="Сгруппировать 761" transform="translate(8.544 9.826)">
        <g id="Сгруппировать_760" data-name="Сгруппировать 760">
          <path id="Контур_944" data-name="Контур 944" d="M174.186,198.568l-2.831-2.207a.427.427,0,1,0-.525.674l2.831,2.207a.427.427,0,1,0,.525-.674Z" transform="translate(-170.664 -196.272)" fill="#30e2d9" stroke="#30e2d9" stroke-width="0.3"/>
        </g>
      </g>
      <g id="Сгруппировать_763" data-name="Сгруппировать 763" transform="translate(15.807 11.108)">
        <g id="Сгруппировать_762" data-name="Сгруппировать 762">
          <path id="Контур_945" data-name="Контур 945" d="M320.432,221.867a4.7,4.7,0,1,0,4.7,4.7A4.7,4.7,0,0,0,320.432,221.867Zm0,8.544a3.845,3.845,0,1,1,3.845-3.845A3.849,3.849,0,0,1,320.432,230.411Z" transform="translate(-315.733 -221.867)" fill="#30e2d9" stroke="#30e2d9" stroke-width="0.3"/>
        </g>
      </g>
      <g id="Сгруппировать_765" data-name="Сгруппировать 765" transform="translate(18.797 12.816)">
        <g id="Сгруппировать_764" data-name="Сгруппировать 764">
          <path id="Контур_946" data-name="Контур 946" d="M377.176,256a1.709,1.709,0,1,0,1.709,1.709A1.711,1.711,0,0,0,377.176,256Zm0,2.563a.854.854,0,1,1,.854-.854A.855.855,0,0,1,377.176,258.563Z" transform="translate(-375.467 -256)" fill="#30e2d9" stroke="#30e2d9" stroke-width="0.3"/>
        </g>
      </g>
      <g id="Сгруппировать_767" data-name="Сгруппировать 767" transform="translate(17.943 17.089)">
        <g id="Сгруппировать_766" data-name="Сгруппировать 766">
          <path id="Контур_947" data-name="Контур 947" d="M362.2,341.333h-2.479a1.308,1.308,0,0,0-1.324,1.288v1.126a.427.427,0,0,0,.213.37,4.675,4.675,0,0,0,4.7,0,.427.427,0,0,0,.213-.37v-1.126A1.308,1.308,0,0,0,362.2,341.333Zm.469,2.16a3.874,3.874,0,0,1-3.418,0v-.871a.453.453,0,0,1,.469-.434H362.2a.453.453,0,0,1,.47.434v.871Z" transform="translate(-358.4 -341.333)" fill="#30e2d9" stroke="#30e2d9" stroke-width="0.3"/>
        </g>
      </g>
      <g id="Сгруппировать_769" data-name="Сгруппировать 769" transform="translate(5.554 16.234)">
        <g id="Сгруппировать_768" data-name="Сгруппировать 768">
          <path id="Контур_948" data-name="Контур 948" d="M115.632,324.267a4.7,4.7,0,1,0,4.7,4.7A4.7,4.7,0,0,0,115.632,324.267Zm0,8.544a3.845,3.845,0,1,1,3.845-3.845A3.849,3.849,0,0,1,115.632,332.811Z" transform="translate(-110.933 -324.267)" fill="#30e2d9" stroke="#30e2d9" stroke-width="0.3"/>
        </g>
      </g>
      <g id="Сгруппировать_771" data-name="Сгруппировать 771" transform="translate(8.544 17.943)">
        <g id="Сгруппировать_770" data-name="Сгруппировать 770">
          <path id="Контур_949" data-name="Контур 949" d="M172.376,358.4a1.709,1.709,0,1,0,1.709,1.709A1.711,1.711,0,0,0,172.376,358.4Zm0,2.563a.854.854,0,1,1,.854-.854A.855.855,0,0,1,172.376,360.963Z" transform="translate(-170.667 -358.4)" fill="#30e2d9" stroke="#30e2d9" stroke-width="0.3"/>
        </g>
      </g>
      <g id="Сгруппировать_773" data-name="Сгруппировать 773" transform="translate(7.69 22.215)">
        <g id="Сгруппировать_772" data-name="Сгруппировать 772">
          <path id="Контур_950" data-name="Контур 950" d="M157.4,443.733h-2.479a1.308,1.308,0,0,0-1.324,1.288v1.126a.428.428,0,0,0,.213.37,4.676,4.676,0,0,0,4.7,0,.427.427,0,0,0,.213-.37v-1.126A1.308,1.308,0,0,0,157.4,443.733Zm.469,2.16a3.874,3.874,0,0,1-3.418,0v-.871a.453.453,0,0,1,.47-.434H157.4a.453.453,0,0,1,.47.434v.871Z" transform="translate(-153.6 -443.733)" fill="#30e2d9" stroke="#30e2d9" stroke-width="0.3"/>
        </g>
      </g>
      <g id="Сгруппировать_775" data-name="Сгруппировать 775" transform="translate(0 5.554)">
        <g id="Сгруппировать_774" data-name="Сгруппировать 774">
          <path id="Контур_951" data-name="Контур 951" d="M4.7,110.933a4.7,4.7,0,1,0,4.7,4.7A4.7,4.7,0,0,0,4.7,110.933Zm0,8.544a3.845,3.845,0,1,1,3.845-3.845A3.849,3.849,0,0,1,4.7,119.477Z" transform="translate(0 -110.933)" fill="#30e2d9" stroke="#30e2d9" stroke-width="0.3"/>
        </g>
      </g>
      <g id="Сгруппировать_777" data-name="Сгруппировать 777" transform="translate(2.991 7.263)">
        <g id="Сгруппировать_776" data-name="Сгруппировать 776">
          <path id="Контур_952" data-name="Контур 952" d="M61.443,145.067a1.709,1.709,0,1,0,1.709,1.709A1.711,1.711,0,0,0,61.443,145.067Zm0,2.563a.854.854,0,1,1,.854-.854A.855.855,0,0,1,61.443,147.63Z" transform="translate(-59.734 -145.067)" fill="#30e2d9" stroke="#30e2d9" stroke-width="0.3"/>
        </g>
      </g>
      <g id="Сгруппировать_779" data-name="Сгруппировать 779" transform="translate(2.136 11.535)">
        <g id="Сгруппировать_778" data-name="Сгруппировать 778">
          <path id="Контур_953" data-name="Контур 953" d="M46.47,230.4H43.991a1.308,1.308,0,0,0-1.324,1.288v1.126a.427.427,0,0,0,.213.37,4.675,4.675,0,0,0,4.7,0,.427.427,0,0,0,.213-.37v-1.126A1.308,1.308,0,0,0,46.47,230.4Zm.469,2.16a3.874,3.874,0,0,1-3.418,0v-.871a.453.453,0,0,1,.47-.434H46.47a.453.453,0,0,1,.469.434v.871Z" transform="translate(-42.667 -230.4)" fill="#30e2d9" stroke="#30e2d9" stroke-width="0.3"/>
        </g>
      </g>
      <g id="Сгруппировать_781" data-name="Сгруппировать 781" transform="translate(10.253)">
        <g id="Сгруппировать_780" data-name="Сгруппировать 780">
          <path id="Контур_954" data-name="Контур 954" d="M209.5,0a4.7,4.7,0,1,0,4.7,4.7A4.7,4.7,0,0,0,209.5,0Zm0,8.544A3.845,3.845,0,1,1,213.344,4.7,3.849,3.849,0,0,1,209.5,8.544Z" transform="translate(-204.8)" fill="#30e2d9" stroke="#30e2d9" stroke-width="0.3"/>
        </g>
      </g>
      <g id="Сгруппировать_783" data-name="Сгруппировать 783" transform="translate(13.244 1.709)">
        <g id="Сгруппировать_782" data-name="Сгруппировать 782">
          <path id="Контур_955" data-name="Контур 955" d="M266.243,34.133a1.709,1.709,0,1,0,1.709,1.709A1.711,1.711,0,0,0,266.243,34.133Zm0,2.563a.854.854,0,1,1,.854-.854A.855.855,0,0,1,266.243,36.7Z" transform="translate(-264.534 -34.133)" fill="#30e2d9" stroke="#30e2d9" stroke-width="0.3"/>
        </g>
      </g>
      <g id="Сгруппировать_785" data-name="Сгруппировать 785" transform="translate(12.389 5.981)">
        <g id="Сгруппировать_784" data-name="Сгруппировать 784">
          <path id="Контур_956" data-name="Контур 956" d="M251.27,119.467h-2.479a1.308,1.308,0,0,0-1.324,1.288v1.126a.428.428,0,0,0,.213.37,4.676,4.676,0,0,0,4.7,0,.427.427,0,0,0,.213-.37v-1.126A1.308,1.308,0,0,0,251.27,119.467Zm.47,2.16a3.874,3.874,0,0,1-3.418,0v-.871a.453.453,0,0,1,.47-.434h2.479a.453.453,0,0,1,.469.434v.871Z" transform="translate(-247.467 -119.467)" fill="#30e2d9" stroke="#30e2d9" stroke-width="0.3"/>
        </g>
      </g>
      <g id="Сгруппировать_787" data-name="Сгруппировать 787" transform="translate(7.293 4.272)">
        <g id="Сгруппировать_786" data-name="Сгруппировать 786">
          <path id="Контур_957" data-name="Контур 957" d="M149.383,85.482a.428.428,0,0,0-.6-.047l-2.961,2.533a.427.427,0,1,0,.555.649l2.961-2.533A.427.427,0,0,0,149.383,85.482Z" transform="translate(-145.671 -85.333)" fill="#30e2d9" stroke="#30e2d9" stroke-width="0.3"/>
        </g>
      </g>
      <g id="Сгруппировать_789" data-name="Сгруппировать 789" transform="translate(17.089 7.69)">
        <g id="Сгруппировать_788" data-name="Сгруппировать 788">
          <path id="Контур_958" data-name="Контур 958" d="M344.665,157.2l-2.563-3.418a.427.427,0,0,0-.684.512l2.563,3.418a.427.427,0,0,0,.684-.512Z" transform="translate(-341.333 -153.61)" fill="#30e2d9" stroke="#30e2d9" stroke-width="0.3"/>
        </g>
      </g>
      <g id="Сгруппировать_791" data-name="Сгруппировать 791" transform="translate(13.759 17.049)">
        <g id="Сгруппировать_790" data-name="Сгруппировать 790">
          <path id="Контур_959" data-name="Контур 959" d="M277.988,340.711a.427.427,0,0,0-.6-.085L275,342.415a.427.427,0,0,0,.513.683l2.386-1.79A.427.427,0,0,0,277.988,340.711Z" transform="translate(-274.833 -340.54)" fill="#30e2d9" stroke="#30e2d9" stroke-width="0.3"/>
        </g>
      </g>
      <g id="Сгруппировать_793" data-name="Сгруппировать 793" transform="translate(2.563 20.506)">
        <g id="Сгруппировать_792" data-name="Сгруппировать 792">
          <path id="Контур_960" data-name="Контур 960" d="M54.618,409.6H51.627a.427.427,0,0,0,0,.854h2.99a.427.427,0,0,0,0-.854Z" transform="translate(-51.2 -409.6)" fill="#30e2d9" stroke="#30e2d9" stroke-width="0.3"/>
        </g>
      </g>
      <g id="Сгруппировать_795" data-name="Сгруппировать 795" transform="translate(2.99)">
        <g id="Сгруппировать_794" data-name="Сгруппировать 794">
          <path id="Контур_961" data-name="Контур 961" d="M61.442,0a1.709,1.709,0,1,0,1.709,1.709A1.711,1.711,0,0,0,61.442,0Zm0,2.563a.854.854,0,1,1,.854-.854A.855.855,0,0,1,61.442,2.563Z" transform="translate(-59.733)" fill="#30e2d9" stroke="#30e2d9" stroke-width="0.3"/>
        </g>
      </g>
      <g id="Сгруппировать_797" data-name="Сгруппировать 797" transform="translate(4.272 2.563)">
        <g id="Сгруппировать_796" data-name="Сгруппировать 796">
          <path id="Контур_962" data-name="Контур 962" d="M85.761,51.2a.427.427,0,0,0-.427.427v2.99a.427.427,0,0,0,.854,0v-2.99A.427.427,0,0,0,85.761,51.2Z" transform="translate(-85.334 -51.2)" fill="#30e2d9" stroke="#30e2d9" stroke-width="0.3"/>
        </g>
      </g>
    </g>
  </g>
</svg>
