<svg xmlns="http://www.w3.org/2000/svg" width="120.858" height="34.366"><g data-name="Сгруппировать 18"><path data-name="Контур 17" d="M44.926 9.904c0-1.7 1.463-2.718 3.791-2.718 2.558 0 4.159 1.059 4.89 3.223l8.544-.827c-.914-6.406-6.123-9.585-13.753-9.585-7.311 0-12.61 4.01-12.61 10.229 0 12.16 17.225 9.165 17.452 14.234.048 1.752-1.552 2.857-4.111 2.857-2.877 0-4.66-1.292-5.346-3.733l-8.864.783c1.1 6.5 6.58 10 14.255 10 8.131 0 13.434-4.1 13.434-10.318-.003-12.255-17.682-8.339-17.682-14.145z" fill="#f2f2f2"/><path data-name="Контур 18" d="M87.321 13.904H76.543V8.232h11.6L87.751.504H67.312v33.355h9.231V21.414h10.779z" fill="#f2f2f2"/><path data-name="Контур 19" d="M116.584 22.342h-16.56L107.74.504h-8.766L86.638 33.859h9.732l1.556-4.976h11.648l1.6 4.976h9.684z" fill="#f2f2f2"/><path data-name="Контур 20" d="M111.445 7.37l-3.19 10.121h6.66z" fill="#30e2d9"/><path data-name="Контур 21" d="M16.367 19.955h12.975v-7.242H0v7.233h6.638l-.261 13.913H29.82l.395-8.708H16.367z" fill="#30e2d9"/><path data-name="Контур 22" d="M6.376.504l.261 7.724h23.578L29.82.504z" fill="#30e2d9"/></g></svg>